<svg class="css-ze2te4 css-qd6ojx" viewBox="0 0 80 80.0066630045573"><g transform="translate(0, -0.003330707550048828) scale(3.3333333333333335)" class="css-v69mm8" fill="#ffb400"><g xmlns="http://www.w3.org/2000/svg"><g><path d="M19.5,17.001c0.276,0,0.5-0.224,0.5-0.5c0-0.276-0.224-0.5-0.5-0.5s-0.5,0.224-0.5,0.5    C19,16.777,19.224,17.001,19.5,17.001z M14.5,17.001H14v-0.5c0-0.276-0.224-0.5-0.5-0.5s-0.5,0.224-0.5,0.5v0.5h-0.5    c-0.276,0-0.5,0.224-0.5,0.5s0.224,0.5,0.5,0.5H13v0.5c0,0.276,0.224,0.5,0.5,0.5s0.5-0.224,0.5-0.5v-0.5h0.5    c0.276,0,0.5-0.224,0.5-0.5S14.776,17.001,14.5,17.001z M13.017,1.882c0.438,0.669,0.273,0.998,0.063,1.22l-0.369,0.37    c-0.087,0.088-0.139,0.205-0.145,0.329l-0.09,1.85c-0.007,0.136,0.042,0.268,0.135,0.367c0.093,0.098,0.222,0.155,0.358,0.157    c0.094,0.001,0.152,0.052,0.178,0.081c0.027,0.031,0.069,0.094,0.057,0.187l-0.185,1.479c-0.014,0.119-0.117,0.209-0.273,0.209    c-0.261,0-0.477,0.2-0.498,0.461c-0.081,1.017-0.582,2.031-1.342,2.713c-0.137,0.124-0.196,0.313-0.151,0.493l0.347,1.389    c0.066,0.267,0.335,0.426,0.606,0.364c0.267-0.067,0.43-0.338,0.364-0.606l-0.276-1.107c0.729-0.746,1.233-1.747,1.401-2.777    c0.43-0.155,0.755-0.539,0.814-1.015l0.185-1.479C14.24,6.217,14.131,5.865,13.9,5.6c-0.113-0.13-0.252-0.235-0.405-0.306    l0.061-1.251l0.243-0.244c0.45-0.477,0.823-1.291,0.054-2.464C13.274,0.45,12.296,0,10.945,0c-0.522,0-1.716,0-2.843,0.742    C4.856,0.824,4.435,2.43,4.435,3.827c0,0.317,0.069,0.984,0.122,1.442C4.385,5.341,4.23,5.45,4.104,5.594    c-0.236,0.266-0.345,0.621-0.3,0.973l0.185,1.479c0.063,0.508,0.429,0.912,0.903,1.042c0.167,0.988,0.644,1.953,1.33,2.683    l-0.221,0.884l-2.756,0.688C1.334,13.82,0,15.529,0,17.499c0,0.276,0.224,0.5,0.5,0.5s0.5-0.224,0.501-0.5    c0-1.51,1.022-2.821,2.487-3.186l3.047-0.762c0.179-0.045,0.319-0.184,0.364-0.364l0.362-1.449    c0.044-0.175-0.011-0.361-0.144-0.485c-0.723-0.68-1.203-1.675-1.281-2.66c-0.02-0.261-0.237-0.461-0.498-0.461h-0.12    c-0.12,0-0.222-0.09-0.237-0.209L4.796,6.443C4.785,6.35,4.827,6.285,4.854,6.255c0.027-0.03,0.085-0.081,0.256-0.081    c0.144,0,0.28-0.062,0.375-0.169C5.58,5.896,5.624,5.754,5.606,5.611C5.558,5.235,5.435,4.18,5.435,3.826    c0-0.917,0-2.059,2.831-2.087c0.102-0.001,0.202-0.033,0.286-0.094c0.796-0.569,1.657-0.646,2.393-0.646    C11.937,0.999,12.633,1.296,13.017,1.882z M15.4,1.217c0.573-0.195,1.127-0.219,1.545-0.219c0.992,0,1.688,0.297,2.072,0.883    c0.438,0.669,0.273,0.998,0.063,1.22l-0.369,0.37c-0.087,0.088-0.139,0.205-0.145,0.329l-0.09,1.85    c-0.007,0.136,0.042,0.268,0.135,0.367c0.093,0.098,0.222,0.155,0.358,0.157c0.094,0.001,0.152,0.052,0.178,0.081    c0.027,0.031,0.069,0.094,0.057,0.187l-0.185,1.479c-0.014,0.119-0.117,0.209-0.273,0.209c-0.261,0-0.477,0.2-0.498,0.461    c-0.081,1.017-0.582,2.031-1.342,2.713c-0.137,0.124-0.196,0.313-0.151,0.493l0.207,0.832c0.056,0.228,0.26,0.379,0.485,0.379    c0.04,0,0.08-0.005,0.121-0.014c0.267-0.066,0.43-0.337,0.364-0.606l-0.138-0.551c0.73-0.746,1.234-1.747,1.402-2.777    c0.43-0.155,0.755-0.539,0.814-1.015l0.185-1.479c0.044-0.35-0.065-0.702-0.296-0.967c-0.113-0.13-0.252-0.235-0.405-0.306    l0.061-1.251l0.243-0.244c0.45-0.477,0.823-1.291,0.054-2.464c-0.579-0.886-1.557-1.335-2.908-1.335    c-0.495,0-1.154,0.031-1.865,0.271c-0.261,0.089-0.402,0.372-0.313,0.634C14.854,1.165,15.137,1.305,15.4,1.217z M19.5,18.001    c-0.276,0-0.5,0.224-0.5,0.5c0,0.276,0.224,0.5,0.5,0.5s0.5-0.224,0.5-0.5C20,18.224,19.776,18.001,19.5,18.001z M18.5,17.001    c-0.276,0-0.5,0.224-0.5,0.5c0,0.276,0.224,0.5,0.5,0.5s0.5-0.224,0.5-0.5C19,17.224,18.776,17.001,18.5,17.001z M18.5,14.001h-4    c-4.196,0-5.5,4.765-5.5,6.5c0,2.322,0.673,3.5,2,3.5c2.074,0,3.095-1.946,3.385-2.615c0.344-0.128,1.156-0.385,2.115-0.385    s1.77,0.257,2.115,0.385c0.29,0.669,1.311,2.615,3.385,2.615c1.327,0,2-1.178,2-3.5C24,18.766,22.696,14.001,18.5,14.001z     M22,23.001c-1.738,0-2.52-2.145-2.528-2.166c-0.046-0.128-0.141-0.232-0.264-0.289c-0.049-0.022-1.21-0.545-2.708-0.545    s-2.659,0.523-2.708,0.545c-0.123,0.057-0.218,0.161-0.264,0.289c-0.007,0.021-0.79,2.166-2.528,2.166c-0.247,0-1,0-1-2.5    c0-0.854,0.83-5.5,4.5-5.5h4c3.67,0,4.5,4.646,4.5,5.5C23,23.001,22.247,23.001,22,23.001z M20.5,17.001    c-0.276,0-0.5,0.224-0.5,0.5c0,0.276,0.224,0.5,0.5,0.5s0.5-0.224,0.5-0.5C21,17.224,20.776,17.001,20.5,17.001z"></path></g></g></g></svg>
